<?xml version="1.0" encoding="UTF-8" standalone="no"?>
<svg width="1540px" height="1124px" viewBox="0 0 1540 1124" version="1.1" xmlns="http://www.w3.org/2000/svg" xmlns:xlink="http://www.w3.org/1999/xlink" xmlns:sketch="http://www.bohemiancoding.com/sketch/ns">
    <!-- Generator: Sketch 3.1 (8751) - http://www.bohemiancoding.com/sketch -->
    <title>lobby</title>
    <desc>Created with Sketch.</desc>
    <defs></defs>
    <g id="Matchmaking" stroke="none" stroke-width="1" fill="none" fill-rule="evenodd" sketch:type="MSPage">
        <g id="lobby" sketch:type="MSArtboardGroup">
            <path d="M770,877.56127 C697.780383,938.956248 604.216207,976 502,976 C273.354114,976 88,790.645886 88,562 C88,333.354114 273.354114,148 502,148 C604.216207,148 697.780383,185.043752 770,246.43873 C842.219617,185.043752 935.783793,148 1038,148 C1266.64589,148 1452,333.354114 1452,562 C1452,790.645886 1266.64589,976 1038,976 C935.783793,976 842.219617,938.956248 770,877.56127 Z" id="Oval-20" stroke="#FFFFFF" stroke-width="100" sketch:type="MSShapeGroup" transform="translate(770.000000, 562.000000) scale(-1, 1) translate(-770.000000, -562.000000) "></path>
            <text id="RY" sketch:type="MSTextLayer" font-family="Outage" font-size="200" font-weight="bold" letter-spacing="5" fill="#4A90E2">
                <tspan x="979.558026" y="632">ry</tspan>
            </text>
            <text id="MA" sketch:type="MSTextLayer" font-family="Outage" font-size="200" font-weight="bold" letter-spacing="5" fill="#8ED72B">
                <tspan x="624" y="632">ma</tspan>
            </text>
            <text id="PRI" sketch:type="MSTextLayer" font-family="Outage" font-size="200" font-weight="bold" letter-spacing="5" fill="#D0011B">
                <tspan x="245.526045" y="632">pri</tspan>
            </text>
        </g>
    </g>
</svg>