<?xml version="1.0" encoding="UTF-8" standalone="no"?>
<svg width="804px" height="388px" viewBox="0 0 804 388" version="1.1" xmlns="http://www.w3.org/2000/svg" xmlns:xlink="http://www.w3.org/1999/xlink" xmlns:sketch="http://www.bohemiancoding.com/sketch/ns">
    <!-- Generator: Sketch 3.1 (8751) - http://www.bohemiancoding.com/sketch -->
    <title>pick-colors-3</title>
    <desc>Created with Sketch.</desc>
    <defs>
        <rect id="path-1" x="0" y="0" width="783.047264" height="366.903168" rx="50"></rect>
    </defs>
    <g id="matchmaking-alt" stroke="none" stroke-width="1" fill="none" fill-rule="evenodd" sketch:type="MSPage">
        <g id="banner-8" sketch:type="MSArtboardGroup" transform="translate(-386.000000, -667.000000)">
            <g id="pick-colors-3" sketch:type="MSLayerGroup" transform="translate(391.000000, 662.000000)">
                <g id="Group">
                    <g id="Player-6" transform="translate(0.500000, 10.500000)">
                        <g id="color-choose">
                            <g id="iphone">
                                <g id="Group" transform="translate(-0.022388, -0.071928)" sketch:type="MSShapeGroup">
                                    <rect id="Rectangle-path" stroke="#353535" stroke-width="5" fill="#000000" x="4.98756219" y="5.02607079" width="783.047264" height="366.903168" rx="50"></rect>
                                    <rect id="border" stroke="#F8E81C" stroke-width="10" x="0" y="0" width="793.022388" height="376.955309" rx="55"></rect>
                                </g>
                                <g id="Clipped" transform="translate(4.965174, 4.954143)">
                                    <mask id="mask-2" sketch:name="Rectangle-path" fill="white">
                                        <use xlink:href="#path-1"></use>
                                    </mask>
                                    <g id="Rectangle-path"></g>
                                    <path d="M394.017413,-5.02607079 L812.972637,-5.02607079 L812.972637,1402.27375" id="Shape" opacity="0.05" fill="#FFFFFF" sketch:type="MSShapeGroup" mask="url(#mask-2)"></path>
                                </g>
                                <g id="Group" transform="translate(35.895522, 155.706507)" fill="#212425" sketch:type="MSShapeGroup">
                                    <ellipse id="Oval" cx="6.98258706" cy="35.1824955" rx="6.98258706" ry="7.03649911"></ellipse>
                                    <rect id="Rectangle-path" x="31.920398" y="0" width="14.9626866" height="70.3649911" rx="7.5"></rect>
                                </g>
                                <g id="Group" transform="translate(700.730100, 155.736267)" sketch:type="MSShapeGroup">
                                    <ellipse id="Oval" fill="#212425" cx="32.4191542" cy="32.6694601" rx="32.4191542" ry="32.6694601"></ellipse>
                                    <rect id="Rectangle-path" stroke="#8A8E91" stroke-width="2.5" x="20.9477612" y="21.1094973" width="22.4440299" height="22.6173186" rx="4"></rect>
                                </g>
                            </g>
                            <rect id="Rectangle-6" fill="#8ED72A" sketch:type="MSShapeGroup" x="111.358577" y="34.5354462" width="392.641423" height="7.38684606"></rect>
                            <rect id="Rectangle-3" fill="#2D2D2D" sketch:type="MSShapeGroup" x="111.25" y="26.963929" width="567.75" height="321.926959"></rect>
                        </g>
                    </g>
                    <g transform="translate(368.000000, 0.000000)">
                        <polygon id="Triangle-1" fill="#4990E2" sketch:type="MSShapeGroup" transform="translate(96.909641, 96.909641) rotate(-45.000000) translate(-96.909641, -96.909641) " points="96.9096411 51.5270203 188.833523 142.292262 4.98575952 142.292262 "></polygon>
                        <rect id="Rectangle-26" fill="#D0011B" sketch:type="MSShapeGroup" x="64" y="140" width="202" height="54"></rect>
                        <rect id="Rectangle-27" fill="#D0011B" sketch:type="MSShapeGroup" x="66" y="65" width="202" height="54"></rect>
                        <polygon id="Triangle-2" fill="#4990E2" sketch:type="MSShapeGroup" transform="translate(97.409641, 97.409641) rotate(-45.000000) translate(-97.409641, -97.409641) " points="97.4096411 51.3199135 189.333523 143.499369 5.48575952 143.499369 "></polygon>
                        <rect id="Rectangle-25" fill="#8ED72A" sketch:type="MSShapeGroup" x="82" y="81" width="184" height="113"></rect>
                        <rect id="Rectangle-10" stroke="#979797" stroke-width="5" sketch:type="MSShapeGroup" x="60" y="60.5" width="211" height="138" rx="8"></rect>
                        <text id="b-2" sketch:type="MSTextLayer" font-family="Outage" font-size="80" font-weight="bold" fill="#2D2D2D">
                            <tspan x="136" y="157">b</tspan>
                        </text>
                    </g>
                    <g id="Rectangle-11-+-a-2" transform="translate(157.000000, 61.000000)" sketch:type="MSShapeGroup">
                        <rect id="Rectangle-22" fill="#4990E2" x="5" y="5" width="66" height="65"></rect>
                        <rect id="Rectangle-23" fill="#D0011B" x="70" y="5" width="70" height="65"></rect>
                        <rect id="Rectangle-24" fill="#8ED72A" x="140" y="5" width="66" height="65"></rect>
                        <rect id="Rectangle-23" fill="#8ED72A" x="5" y="69" width="66" height="65"></rect>
                        <rect id="Rectangle-24" fill="#4990E2" x="70" y="69" width="70" height="65"></rect>
                        <rect id="Rectangle-25" fill="#D0011B" x="140" y="69" width="66" height="65"></rect>
                        <rect id="Rectangle-11" stroke="#979797" stroke-width="5" x="0" y="0.5" width="211" height="138" rx="8"></rect>
                        <path d="M120,41.5 C121.280006,41.5 122.493328,41.7533308 123.64,42.26 C124.786672,42.7666692 125.773329,43.4333292 126.6,44.26 C127.426671,45.0866708 128.093331,46.0733276 128.6,47.22 C129.106669,48.3666724 129.36,49.5799936 129.36,50.86 L129.36,95.98 C129.36,96.4066688 129.213335,96.7666652 128.92,97.06 C128.626665,97.3533348 128.266669,97.5 127.84,97.5 L116.72,97.5 C116.293331,97.5 115.933335,97.3533348 115.64,97.06 C115.346665,96.7666652 115.2,96.4066688 115.2,95.98 L115.2,81.66 C115.2,81.2333312 115.066668,80.8733348 114.8,80.58 C114.533332,80.2866652 114.186669,80.14 113.76,80.14 L97.92,80.14 C97.4933312,80.14 97.1333348,80.2866652 96.84,80.58 C96.5466652,80.8733348 96.4,81.2333312 96.4,81.66 L96.4,95.98 C96.4,96.9933384 95.8933384,97.5 94.88,97.5 L83.84,97.5 C82.8266616,97.5 82.32,96.9933384 82.32,95.98 L82.32,50.86 C82.32,49.5799936 82.5599976,48.3666724 83.04,47.22 C83.5200024,46.0733276 84.1866624,45.0866708 85.04,44.26 C85.8933376,43.4333292 86.8933276,42.7666692 88.04,42.26 C89.1866724,41.7533308 90.3999936,41.5 91.68,41.5 L120,41.5 Z M115.2,68.14 L115.2,54.06 L96.4,54.06 L96.4,68.14 L115.2,68.14 Z" id="a-2" fill="#2D2D2D"></path>
                    </g>
                </g>
                <rect id="Rectangle-6" fill="#D0011B" sketch:type="MSShapeGroup" x="110" y="253" width="84" height="35"></rect>
                <text id="8%" sketch:type="MSTextLayer" font-family="Outage" font-size="25" font-weight="bold" letter-spacing="0.625" fill="#2D2D2D">
                    <tspan x="152" y="279">8%</tspan>
                </text>
                <rect id="Rectangle-8" fill="#8ED72A" sketch:type="MSShapeGroup" x="110" y="288" width="457" height="35"></rect>
                <rect id="Rectangle-9" fill="#4990E2" sketch:type="MSShapeGroup" x="110.394544" y="323" width="167" height="35"></rect>
                <text id="79%" sketch:type="MSTextLayer" font-family="Outage" font-size="25" font-weight="bold" letter-spacing="0.625" fill="#2D2D2D">
                    <tspan x="514" y="314">79%</tspan>
                </text>
                <text id="13%-2" sketch:type="MSTextLayer" font-family="Outage" font-size="25" font-weight="bold" letter-spacing="0.625" fill="#2D2D2D">
                    <tspan x="223.5" y="347.5">13%</tspan>
                </text>
            </g>
        </g>
    </g>
</svg>