<?xml version="1.0" encoding="UTF-8" standalone="no"?>
<svg width="90px" height="70px" viewBox="0 0 90 70" version="1.1" xmlns="http://www.w3.org/2000/svg" xmlns:xlink="http://www.w3.org/1999/xlink" xmlns:sketch="http://www.bohemiancoding.com/sketch/ns">
    <!-- Generator: Sketch 3.1 (8751) - http://www.bohemiancoding.com/sketch -->
    <title>rotate-phone</title>
    <desc>Created with Sketch.</desc>
    <defs></defs>
    <g id="Page-1" stroke="none" stroke-width="1" fill="none" fill-rule="evenodd" sketch:type="MSPage">
        <g id="rotate-phone" sketch:type="MSArtboardGroup" transform="translate(-1.000000, -1.000000)" fill="#FFFFFF">
            <g sketch:type="MSLayerGroup" transform="translate(1.000000, 1.000000)" id="Group">
                <g sketch:type="MSShapeGroup">
                    <g id="Shape">
                        <path d="M22.291,56.879 L2.56,56.879 C2.362,56.879 2.201,56.719 2.201,56.52 L2.201,9.58 C2.201,9.382 2.362,9.221 2.56,9.221 L29.036,9.221 C29.234,9.221 29.395,9.382 29.395,9.58 L29.395,36.495 L31.279,36.495 L31.279,4.196 C31.279,2.015 29.511,0.247 27.33,0.247 L26.428,0.247 C26.371,0.124 26.248,0.038 26.104,0.038 L22.664,0.038 C22.52,0.038 22.397,0.125 22.34,0.247 L4.175,0.247 C1.994,0.247 0.226,2.015 0.226,4.196 L0.226,9.298 C0.103,9.356 0.017,9.478 0.017,9.622 L0.017,10.927 C0.017,11.071 0.103,11.194 0.226,11.251 L0.226,12.768 C0.103,12.825 0.017,12.948 0.017,13.092 L0.017,14.397 C0.017,14.541 0.103,14.664 0.226,14.72 L0.226,61.784 C0.226,63.966 1.994,65.733 4.175,65.733 L22.29,65.733 L22.29,56.879 L22.291,56.879 Z M15.634,2.79 C15.964,2.79 16.232,3.058 16.232,3.388 C16.232,3.718 15.964,3.987 15.634,3.987 C15.303,3.987 15.035,3.718 15.035,3.388 C15.036,3.057 15.304,2.79 15.634,2.79 L15.634,2.79 Z M13.54,5.602 L18.028,5.602 C18.226,5.602 18.387,5.763 18.387,5.961 C18.387,6.159 18.226,6.319 18.028,6.319 L13.54,6.319 C13.342,6.319 13.181,6.159 13.181,5.961 C13.181,5.763 13.341,5.602 13.54,5.602 L13.54,5.602 Z M15.993,64.237 C14.278,64.237 12.882,62.842 12.882,61.126 C12.882,59.411 14.278,58.015 15.993,58.015 C17.709,58.015 19.104,59.411 19.104,61.126 C19.104,62.843 17.709,64.237 15.993,64.237 L15.993,64.237 Z"></path>
                        <path d="M16.007,58.703 C14.687,58.703 13.613,59.777 13.613,61.096 C13.613,62.416 14.687,63.491 16.007,63.491 C17.327,63.491 18.4,62.417 18.4,61.096 C18.4,59.777 17.327,58.703 16.007,58.703 L16.007,58.703 Z"></path>
                    </g>
                    <g transform="translate(24.000000, 38.000000)">
                        <circle id="Oval" cx="4.394" cy="16.394" r="2.394"></circle>
                        <path d="M65.572,22.265 L65.572,4.1 C65.572,1.918 63.804,0.152 61.623,0.152 L56.521,0.152 C56.464,0.028 56.341,-0.057 56.198,-0.057 L54.891,-0.057 C54.747,-0.057 54.624,0.028 54.569,0.152 L53.05,0.152 C52.992,0.028 52.87,-0.057 52.726,-0.057 L51.422,-0.057 C51.276,-0.057 51.154,0.028 51.097,0.152 L4.034,0.152 C1.853,0.152 0.085,1.919 0.085,4.1 L0.085,27.255 C0.085,29.436 1.853,31.204 4.034,31.204 L61.623,31.204 C63.805,31.204 65.572,29.435 65.572,27.255 L65.572,26.354 C65.695,26.296 65.781,26.174 65.781,26.029 L65.781,22.589 C65.781,22.444 65.695,22.321 65.572,22.265 L65.572,22.265 Z M4.692,19.028 C2.977,19.028 1.581,17.633 1.581,15.917 C1.581,14.201 2.977,12.806 4.692,12.806 C6.407,12.806 7.803,14.202 7.803,15.917 C7.803,17.634 6.407,19.028 4.692,19.028 L4.692,19.028 Z M56.598,28.96 C56.598,29.159 56.437,29.318 56.239,29.318 L9.299,29.318 C9.101,29.318 8.94,29.159 8.94,28.96 L8.94,2.484 C8.94,2.286 9.101,2.125 9.299,2.125 L56.238,2.125 C56.436,2.125 56.597,2.286 56.597,2.484 L56.597,28.96 L56.598,28.96 Z M60.218,17.951 C60.218,18.149 60.057,18.31 59.859,18.31 C59.661,18.31 59.5,18.149 59.5,17.951 L59.5,13.464 C59.5,13.267 59.661,13.106 59.859,13.106 C60.057,13.106 60.218,13.267 60.218,13.464 L60.218,17.951 L60.218,17.951 Z M62.431,16.156 C62.101,16.156 61.833,15.889 61.833,15.558 C61.833,15.227 62.101,14.959 62.431,14.959 C62.762,14.959 63.03,15.227 63.03,15.558 C63.03,15.889 62.762,16.156 62.431,16.156 L62.431,16.156 Z" id="Shape"></path>
                    </g>
                    <path d="M58.517,29.91 L56.828,31.734 C55.869,22.169 50.296,17.619 45.694,15.481 C40.571,13.098 35.666,13.141 35.46,13.141 L34.931,13.149 L34.931,14.584 L35.479,14.577 C35.525,14.573 40.304,14.544 45.133,16.804 C51.189,19.637 54.628,24.645 55.38,31.698 L53.653,30.097 L53.732,32.162 L56.256,34.502 L58.596,31.977 L58.517,29.91 L58.517,29.91 Z" id="Shape"></path>
                </g>
            </g>
        </g>
    </g>
</svg>