<?xml version="1.0" encoding="UTF-8" standalone="no"?>
<svg width="505px" height="474px" viewBox="0 0 505 474" version="1.1" xmlns="http://www.w3.org/2000/svg" xmlns:xlink="http://www.w3.org/1999/xlink" xmlns:sketch="http://www.bohemiancoding.com/sketch/ns">
    <!-- Generator: Sketch 3.1 (8751) - http://www.bohemiancoding.com/sketch -->
    <title>slide-2-graphic</title>
    <desc>Created with Sketch.</desc>
    <defs></defs>
    <g id="slides" stroke="none" stroke-width="1" fill="none" fill-rule="evenodd" sketch:type="MSPage">
        <g id="slide-2" sketch:type="MSArtboardGroup" transform="translate(-532.000000, -616.000000)">
            <g id="slide-2-graphic" sketch:type="MSLayerGroup" transform="translate(532.000000, 616.000000)">
                <g id="Rectangle-106-+-Rectangle-107" transform="translate(0.000000, 70.193389)" sketch:type="MSShapeGroup">
                    <rect id="Rectangle-106" stroke="#979797" stroke-width="10" x="0" y="0" width="505" height="326"></rect>
                    <rect id="Rectangle-107" fill="#979797" x="8" y="156" width="488" height="15"></rect>
                </g>
                <circle id="Oval-27" fill="#D0011B" sketch:type="MSShapeGroup" cx="95" cy="329" r="25"></circle>
                <circle id="Oval-26" fill="#8ED72A" sketch:type="MSShapeGroup" cx="153.5" cy="329" r="25"></circle>
                <circle id="Oval-25" fill="#4990E2" sketch:type="MSShapeGroup" cx="212.5" cy="329" r="25"></circle>
                <g id="Rectangle-108-+-Triangle-8" transform="translate(127.000000, 1.000000)" fill="#FFFFFF" sketch:type="MSShapeGroup">
                    <rect id="Rectangle-108" x="16.3943464" y="20.5" width="20.2113073" height="265.072289"></rect>
                    <polygon id="Triangle-5" points="26.1445783 0 51.8222892 41 0.46686747 41 "></polygon>
                </g>
                <g id="Rectangle-108-+-Triangle-9" transform="translate(186.000000, 1.000000)" fill="#FFFFFF" sketch:type="MSShapeGroup">
                    <rect id="Rectangle-108" x="16.3943464" y="20.5" width="20.2113073" height="265.072289"></rect>
                    <polygon id="Triangle-5" points="26.1445783 0 51.8222892 41 0.46686747 41 "></polygon>
                </g>
                <g id="Rectangle-108-+-Triangle-10" transform="translate(68.000000, 0.000000)" fill="#FFFFFF" sketch:type="MSShapeGroup">
                    <rect id="Rectangle-108" x="16.3943464" y="20.5" width="20.2113073" height="265.072289"></rect>
                    <polygon id="Triangle-5" points="26.1445783 0 51.8222892 41 0.46686747 41 "></polygon>
                </g>
                <g id="Group" transform="translate(389.000000, 297.000000) scale(1, -1) translate(-389.000000, -297.000000) translate(304.000000, 120.000000)" sketch:type="MSShapeGroup">
                    <circle id="Oval-30" fill="#D0011B" cx="27" cy="329" r="25"></circle>
                    <circle id="Oval-29" fill="#8ED72A" cx="85.5" cy="329" r="25"></circle>
                    <circle id="Oval-28" fill="#4990E2" cx="144.5" cy="329" r="25"></circle>
                    <g id="Rectangle-108-+-Triangle-13" transform="translate(59.000000, 1.000000)" fill="#FFFFFF">
                        <rect id="Rectangle-108" x="16.3943464" y="20.5" width="20.2113073" height="265.072289"></rect>
                        <polygon id="Triangle-5" points="26.1445783 0 51.8222892 41 0.46686747 41 "></polygon>
                    </g>
                    <g id="Rectangle-108-+-Triangle-12" transform="translate(118.000000, 1.000000)" fill="#FFFFFF">
                        <rect id="Rectangle-108" x="16.3943464" y="20.5" width="20.2113073" height="265.072289"></rect>
                        <polygon id="Triangle-5" points="26.1445783 0 51.8222892 41 0.46686747 41 "></polygon>
                    </g>
                    <g id="Rectangle-108-+-Triangle-11" fill="#FFFFFF">
                        <rect id="Rectangle-108" x="16.3943464" y="20.5" width="20.2113073" height="265.072289"></rect>
                        <polygon id="Triangle-5" points="26.1445783 0 51.8222892 41 0.46686747 41 "></polygon>
                    </g>
                </g>
            </g>
        </g>
    </g>
</svg>