<?xml version="1.0" encoding="UTF-8" standalone="no"?>
<svg width="539px" height="742px" viewBox="0 0 539 742" version="1.1" xmlns="http://www.w3.org/2000/svg" xmlns:xlink="http://www.w3.org/1999/xlink" xmlns:sketch="http://www.bohemiancoding.com/sketch/ns">
    <!-- Generator: Sketch 3.1 (8751) - http://www.bohemiancoding.com/sketch -->
    <title>Group</title>
    <desc>Created with Sketch.</desc>
    <defs></defs>
    <g id="pairing" stroke="none" stroke-width="1" fill="none" fill-rule="evenodd" sketch:type="MSPage">
        <g id="Artboard-1" sketch:type="MSArtboardGroup" transform="translate(-4578.000000, -667.000000)">
            <g id="Group" sketch:type="MSLayerGroup" transform="translate(4578.500000, 667.000000)">
                <path d="M385.777,483 C393.631,483 400,476.631 400,468.775 L400,239.505 C400,231.648 393.632,225.281 385.777,225.281 L156.507,225.281 C148.65,225.281 142.283,231.648 142.283,239.505 L142.283,468.775 C142.283,476.63 148.649,483 156.507,483 L385.777,483 L385.777,483 Z" id="Blue_1_" fill="#3C5A99" sketch:type="MSShapeGroup"></path>
                <path d="M320.409,483.307 L320.409,383.504 L353.908,383.504 L358.924,344.609 L320.409,344.609 L320.409,319.777 C320.409,308.516 323.536,300.842 339.684,300.842 L360.28,300.833 L360.28,266.045 C356.718,265.571 344.492,264.512 330.268,264.512 C300.573,264.512 280.243,282.638 280.243,315.925 L280.243,344.609 L246.658,344.609 L246.658,383.504 L280.243,383.504 L280.243,483.307 L320.409,483.307 L320.409,483.307 Z" id="f" fill="#FFFFFF" sketch:type="MSShapeGroup"></path>
                <path d="M79.95,22.65 C79.95,23.450004 79.6750027,24.1249973 79.125,24.675 C78.5749972,25.2250027 77.900004,25.5 77.1,25.5 L55.8,25.5 C54.999996,25.5 54.3250027,25.7499975 53.775,26.25 C53.2249972,26.7500025 52.95,27.399996 52.95,28.2 L52.95,102.15 C52.95,102.950004 52.7000025,103.624997 52.2,104.175 C51.6999975,104.725003 51.050004,105 50.25,105 L29.4,105 C28.599996,105 27.9250027,104.725003 27.375,104.175 C26.8249972,103.624997 26.55,102.950004 26.55,102.15 L26.55,28.2 C26.55,27.399996 26.3000025,26.7500025 25.8,26.25 C25.2999975,25.7499975 24.650004,25.5 23.85,25.5 L2.55,25.5 C1.749996,25.5 1.07500275,25.2250027 0.525,24.675 C-0.02500275,24.1249973 -0.3,23.450004 -0.3,22.65 L-0.3,2.85 C-0.3,0.9499905 0.6499905,0 2.55,0 L23.85,0 L29.4,0 L50.25,0 L55.8,0 L77.1,0 C77.900004,0 78.5749972,0.27499725 79.125,0.825 C79.6750027,1.37500275 79.95,2.049996 79.95,2.85 L79.95,22.65 Z M167.7,0 C170.100012,0 172.374989,0.47499525 174.525,1.425 C176.675011,2.37500475 178.524992,3.62499225 180.075,5.175 C181.625008,6.72500775 182.874995,8.57498925 183.825,10.725 C184.775005,12.8750108 185.25,15.149988 185.25,17.55 L185.25,102.15 C185.25,102.950004 184.975003,103.624997 184.425,104.175 C183.874997,104.725003 183.200004,105 182.4,105 L161.55,105 C160.749996,105 160.075003,104.725003 159.525,104.175 C158.974997,103.624997 158.7,102.950004 158.7,102.15 L158.7,75.3 C158.7,74.499996 158.450002,73.8250028 157.95,73.275 C157.449997,72.7249973 156.800004,72.45 156,72.45 L126.3,72.45 C125.499996,72.45 124.825003,72.7249973 124.275,73.275 C123.724997,73.8250028 123.45,74.499996 123.45,75.3 L123.45,102.15 C123.45,104.050009 122.500009,105 120.6,105 L99.9,105 C97.9999905,105 97.05,104.050009 97.05,102.15 L97.05,17.55 C97.05,15.149988 97.4999955,12.8750108 98.4,10.725 C99.3000045,8.57498925 100.549992,6.72500775 102.15,5.175 C103.750008,3.62499225 105.624989,2.37500475 107.775,1.425 C109.925011,0.47499525 112.199988,0 114.6,0 L167.7,0 Z M158.7,49.95 L158.7,23.55 L123.45,23.55 L123.45,49.95 L158.7,49.95 Z M271.65,0 C274.050012,0 276.324989,0.47499525 278.475,1.425 C280.625011,2.37500475 282.474992,3.62499225 284.025,5.175 C285.575008,6.72500775 286.824995,8.57498925 287.775,10.725 C288.725005,12.8750108 289.2,15.149988 289.2,17.55 L289.2,57.3 C289.2,59.700012 288.725005,61.9749893 287.775,64.125 C286.824995,66.2750108 285.575008,68.1249923 284.025,69.675 C282.474992,71.2250078 280.625011,72.4749952 278.475,73.425 C276.324989,74.3750047 274.050012,74.85 271.65,74.85 L238.2,74.85 C237.399996,74.85 236.725003,75.0999975 236.175,75.6 C235.624997,76.1000025 235.35,76.749996 235.35,77.55 L235.35,102.15 C235.35,104.050009 234.400009,105 232.5,105 L211.8,105 C209.89999,105 208.95,104.050009 208.95,102.15 L208.95,2.85 C208.95,0.9499905 209.89999,0 211.8,0 L271.65,0 Z M263.7,50.4 L263.7,23.85 L234.45,23.85 L234.45,50.4 L263.7,50.4 Z M431.85,22.65 C431.85,23.450004 431.575003,24.1249973 431.025,24.675 C430.474997,25.2250027 429.800004,25.5 429,25.5 L407.7,25.5 C406.899996,25.5 406.225003,25.7499975 405.675,26.25 C405.124997,26.7500025 404.85,27.399996 404.85,28.2 L404.85,102.15 C404.85,102.950004 404.600002,103.624997 404.1,104.175 C403.599997,104.725003 402.950004,105 402.15,105 L381.3,105 C380.499996,105 379.825003,104.725003 379.275,104.175 C378.724997,103.624997 378.45,102.950004 378.45,102.15 L378.45,28.2 C378.45,27.399996 378.200002,26.7500025 377.7,26.25 C377.199997,25.7499975 376.550004,25.5 375.75,25.5 L354.45,25.5 C353.649996,25.5 352.975003,25.2250027 352.425,24.675 C351.874997,24.1249973 351.6,23.450004 351.6,22.65 L351.6,2.85 C351.6,0.9499905 352.54999,0 354.45,0 L375.75,0 L381.3,0 L402.15,0 L407.7,0 L429,0 C429.800004,0 430.474997,0.27499725 431.025,0.825 C431.575003,1.37500275 431.85,2.049996 431.85,2.85 L431.85,22.65 Z M520.2,0 C522.600012,0 524.874989,0.47499525 527.025,1.425 C529.175011,2.37500475 531.024992,3.62499225 532.575,5.175 C534.125008,6.72500775 535.374995,8.57498925 536.325,10.725 C537.275005,12.8750108 537.75,15.149988 537.75,17.55 L537.75,87.45 C537.75,89.850012 537.275005,92.1249892 536.325,94.275 C535.374995,96.4250108 534.125008,98.299992 532.575,99.9 C531.024992,101.500008 529.175011,102.749996 527.025,103.65 C524.874989,104.550005 522.600012,105 520.2,105 L467.1,105 C464.699988,105 462.425011,104.550005 460.275,103.65 C458.124989,102.749996 456.250008,101.500008 454.65,99.9 C453.049992,98.299992 451.800004,96.4250108 450.9,94.275 C449.999995,92.1249892 449.55,89.850012 449.55,87.45 L449.55,17.55 C449.55,15.149988 449.999995,12.8750108 450.9,10.725 C451.800004,8.57498925 453.049992,6.72500775 454.65,5.175 C456.250008,3.62499225 458.124989,2.37500475 460.275,1.425 C462.425011,0.47499525 464.699988,0 467.1,0 L520.2,0 Z M511.2,25.5 L475.95,25.5 L475.95,79.5 L511.2,79.5 L511.2,25.5 Z" id="tap-to" fill="#FFFFFF" sketch:type="MSShapeGroup"></path>
                <path d="M91.125,716.5 C91.925004,716.5 92.5749975,716.774997 93.075,717.325 C93.5750025,717.875003 93.825,718.549996 93.825,719.35 L93.825,739.15 C93.825,739.950004 93.5750025,740.624997 93.075,741.175 C92.5749975,741.725003 91.925004,742 91.125,742 L26.325,742 C24.4249905,742 23.475,741.050009 23.475,739.15 L23.475,639.85 C23.475,637.949991 24.4249905,637 26.325,637 L47.025,637 C48.9250095,637 49.875,637.949991 49.875,639.85 L49.875,713.8 C49.875,714.600004 50.1499973,715.249997 50.7,715.75 C51.2500028,716.250002 51.924996,716.5 52.725,716.5 L91.125,716.5 Z M178.875,637 C181.275012,637 183.549989,637.474995 185.7,638.425 C187.850011,639.375005 189.699992,640.624992 191.25,642.175 C192.800008,643.725008 194.049995,645.574989 195,647.725 C195.950005,649.875011 196.425,652.149988 196.425,654.55 L196.425,724.45 C196.425,726.850012 195.950005,729.124989 195,731.275 C194.049995,733.425011 192.800008,735.299992 191.25,736.9 C189.699992,738.500008 187.850011,739.749996 185.7,740.65 C183.549989,741.550005 181.275012,742 178.875,742 L125.775,742 C123.374988,742 121.100011,741.550005 118.95,740.65 C116.799989,739.749996 114.925008,738.500008 113.325,736.9 C111.724992,735.299992 110.475005,733.425011 109.575,731.275 C108.674996,729.124989 108.225,726.850012 108.225,724.45 L108.225,654.55 C108.225,652.149988 108.674996,649.875011 109.575,647.725 C110.475005,645.574989 111.724992,643.725008 113.325,642.175 C114.925008,640.624992 116.799989,639.375005 118.95,638.425 C121.100011,637.474995 123.374988,637 125.775,637 L178.875,637 Z M169.875,662.5 L134.625,662.5 L134.625,716.5 L169.875,716.5 L169.875,662.5 Z M305.025,684.7 C305.825004,684.7 306.499997,684.974997 307.05,685.525 C307.600003,686.075003 307.875,686.749996 307.875,687.55 L307.875,724.45 C307.875,726.850012 307.400005,729.124989 306.45,731.275 C305.499995,733.425011 304.250008,735.299992 302.7,736.9 C301.149992,738.500008 299.300011,739.749996 297.15,740.65 C294.999989,741.550005 292.725012,742 290.325,742 L237.225,742 C234.824988,742 232.550011,741.550005 230.4,740.65 C228.249989,739.749996 226.375008,738.500008 224.775,736.9 C223.174992,735.299992 221.925005,733.425011 221.025,731.275 C220.124996,729.124989 219.675,726.850012 219.675,724.45 L219.675,654.55 C219.675,652.149988 220.124996,649.875011 221.025,647.725 C221.925005,645.574989 223.174992,643.725008 224.775,642.175 C226.375008,640.624992 228.249989,639.375005 230.4,638.425 C232.550011,637.474995 234.824988,637 237.225,637 L299.175,637 C299.975004,637 300.649997,637.274997 301.2,637.825 C301.750003,638.375003 302.025,639.049996 302.025,639.85 L302.025,659.65 C302.025,660.450004 301.750003,661.124997 301.2,661.675 C300.649997,662.225003 299.975004,662.5 299.175,662.5 L248.925,662.5 C248.124996,662.5 247.450003,662.749998 246.9,663.25 C246.349997,663.750002 246.075,664.399996 246.075,665.2 L246.075,713.8 C246.075,714.600004 246.349997,715.249997 246.9,715.75 C247.450003,716.250002 248.124996,716.5 248.925,716.5 L278.625,716.5 C279.425004,716.5 280.074998,716.250002 280.575,715.75 C281.075003,715.249997 281.325,714.600004 281.325,713.8 L281.325,687.55 C281.325,686.749996 281.599997,686.075003 282.15,685.525 C282.700003,684.974997 283.374996,684.7 284.175,684.7 L305.025,684.7 Z M407.925,739.15 C407.925,741.050009 406.97501,742 405.075,742 L384.375,742 C382.474991,742 381.525,741.050009 381.525,739.15 L381.525,639.85 C381.525,637.949991 382.474991,637 384.375,637 L405.075,637 C406.97501,637 407.925,637.949991 407.925,639.85 L407.925,739.15 Z M516.825,637 C517.625004,637 518.299997,637.274997 518.85,637.825 C519.400003,638.375003 519.675,639.049996 519.675,639.85 L519.675,739.15 C519.675,739.950004 519.400003,740.624997 518.85,741.175 C518.299997,741.725003 517.625004,742 516.825,742 L497.025,742 L495.225,742 C494.424996,742 493.625004,741.775002 492.825,741.325 C492.024996,740.874998 491.425002,740.300004 491.025,739.6 L457.875,678.4 L457.875,739.15 C457.875,741.050009 456.92501,742 455.025,742 L434.325,742 C432.424991,742 431.475,741.050009 431.475,739.15 L431.475,639.85 C431.475,637.949991 432.424991,637 434.325,637 L455.625,637 C456.425004,637 457.224996,637.224998 458.025,637.675 C458.825004,638.125002 459.424998,638.699996 459.825,639.4 L493.125,700.75 L493.125,639.85 C493.125,639.049996 493.399997,638.375003 493.95,637.825 C494.500003,637.274997 495.174996,637 495.975,637 L516.825,637 Z" id="log-in" fill="#FFFFFF" sketch:type="MSShapeGroup"></path>
            </g>
        </g>
    </g>
</svg>